<?xml version="1.0"?>
<svg xmlns="http://www.w3.org/2000/svg" xmlns:xlink="http://www.w3.org/1999/xlink" version="1.1" viewBox="0 0 192 192" width="96px" height="96px"><g fill="none" fill-rule="nonzero" stroke="none" stroke-width="1" stroke-linecap="butt" stroke-linejoin="miter" stroke-miterlimit="10" stroke-dasharray="" stroke-dashoffset="0" font-family="none" font-weight="none" font-size="none" text-anchor="none" style="mix-blend-mode: normal"><path d="M0,192v-192h192v192z" fill="none"/><g><g id="surface1"><path d="M111.20312,158.79688c-0.40625,0 -0.79687,0 -1.60937,-0.39062c-0.79688,-0.40625 -1.59375,-1.20313 -2.39063,-2l-14.79687,-34.40625l-18,16.79688c-0.40625,0.79688 -1.20313,1.20312 -2.40625,1.20312c-0.40625,0 -1.20312,0 -1.59375,-0.40625c-1.20313,-0.39063 -2.40625,-2 -2.40625,-3.59375v-88c0,-1.59375 0.79688,-3.20312 2.40625,-3.59375c0.39062,-0.40625 1.1875,-0.40625 1.59375,-0.40625c0.79688,0 2,0.40625 2.79688,1.20312l64,60c1.20312,1.20313 1.60938,2.79688 1.20312,4.39063c-0.40625,1.60937 -2,2.40625 -3.59375,2.8125l-25.20313,2.39062l15.59375,34c0.40625,0.79688 0.40625,2 0,3.20312c-0.39062,0.79688 -1.20312,2 -2,2.40625l-11.59375,5.1875c-0.79687,-0.79688 -1.60937,-0.79688 -2,-0.79688z" fill="#f1c40f"/><path d="M72,48l64,60l-30.79688,2.79688l18,39.20312l-11.60937,5.20312l-17.1875,-39.60937l-22.40625,20.40625v-88M72,40c-1.20312,0 -2,0.40625 -3.20312,0.79688c-2.79688,1.20312 -4.79688,4 -4.79688,7.20312v88c0,3.20312 2,6 4.79688,7.20312c1.20312,0.79688 2.40625,0.79688 3.20312,0.79688c2,0 4,-0.79688 5.59375,-2l13.60937,-12.79688l12.39063,29.20313c0.8125,2 2.40625,3.59375 4.40625,4.39062c0.79688,0.40625 2,0.40625 2.79688,0.40625c1.20312,0 2,-0.40625 3.20312,-0.79687l11.59375,-5.20313c2,-0.79687 3.60937,-2.40625 4.40625,-4.40625c0.79688,-2 0.79688,-4.39062 0,-6l-13.20312,-28.79688l19.60938,-1.59375c3.1875,-0.40625 6,-2.40625 6.79687,-5.20313c1.20313,-2.79687 0.39063,-6.40625 -2,-8.40625l-64,-60c-1.20312,-2 -3.20312,-2.79688 -5.20312,-2.79688z" fill="#212121"/></g></g></g></svg>
